<svg width="100" height="100" viewBox="0 0 100 100" fill="none" xmlns="http://www.w3.org/2000/svg">
<path d="M49.8222 100H50.1824C73.3605 99.9388 88.8904 95.1007 92.1181 92.1169C95.5188 89.0672 100 73.2963 100 50C100 26.7037 95.5188 10.9328 92.1134 7.8831C88.8904 4.89928 73.2997 0.0611822 50.1824 0H49.8222C26.6442 0.0611822 11.1142 4.89928 7.88661 7.8831C4.48124 10.9281 0 26.7602 0 49.9953C0 73.2304 4.48124 89.0625 7.88661 92.1075C11.1142 95.1525 26.6442 99.9906 49.8222 99.9906V100Z" fill="#E2F4FE"/>
<mask id="mask0_3581_24884" style="mask-type:alpha" maskUnits="userSpaceOnUse" x="30" y="30" width="40" height="40">
<rect x="30" y="30" width="40" height="40" fill="#D9D9D9"/>
</mask>
<g mask="url(#mask0_3581_24884)">
<path d="M52.8611 55.5553C53.3334 55.5553 53.7384 55.3863 54.0764 55.0483C54.4144 54.7103 54.5834 54.3052 54.5834 53.833C54.5834 53.3608 54.4144 52.9557 54.0764 52.6178C53.7384 52.2798 53.3334 52.1108 52.8611 52.1108C52.3889 52.1108 51.9838 52.2798 51.6459 52.6178C51.3079 52.9557 51.1389 53.3608 51.1389 53.833C51.1389 54.3052 51.3079 54.7103 51.6459 55.0483C51.9838 55.3863 52.3889 55.5553 52.8611 55.5553ZM52.8334 50.2775C53.1204 50.2775 53.3681 50.1802 53.5764 49.9858C53.7848 49.7914 53.9167 49.5414 53.9723 49.2358C54.0278 48.8654 54.169 48.509 54.3959 48.1663C54.6227 47.8238 54.9908 47.4071 55.5 46.9163C56.2963 46.1386 56.8333 45.4881 57.1111 44.965C57.3889 44.4418 57.5278 43.8238 57.5278 43.1108C57.5278 41.8423 57.0903 40.8075 56.2153 40.0066C55.3403 39.2057 54.1945 38.8053 52.7778 38.8053C51.8797 38.8053 51.0556 39.0136 50.3056 39.4303C49.5556 39.8469 48.9584 40.4349 48.5139 41.1941C48.3658 41.4349 48.3519 41.6895 48.4723 41.958C48.5926 42.2265 48.8009 42.4302 49.0973 42.5691C49.3658 42.6895 49.632 42.6987 49.8958 42.5969C50.1597 42.4951 50.3796 42.3238 50.5556 42.083C50.8426 41.6663 51.1713 41.3585 51.5417 41.1594C51.9121 40.9603 52.3241 40.8608 52.7778 40.8608C53.5371 40.8608 54.1621 41.0807 54.6528 41.5205C55.1435 41.9603 55.3889 42.5275 55.3889 43.2219C55.3889 43.7034 55.2686 44.1363 55.0278 44.5205C54.7871 44.9048 54.3612 45.3608 53.75 45.8886C53.0741 46.4534 52.5926 46.9881 52.3056 47.4928C52.0186 47.9974 51.8473 48.5738 51.7917 49.2219C51.7639 49.4997 51.8542 49.7451 52.0625 49.958C52.2709 50.171 52.5278 50.2775 52.8334 50.2775ZM41.6667 61.1108C40.9167 61.1108 40.2662 60.8353 39.7153 60.2844C39.1644 59.7335 38.8889 59.0831 38.8889 58.3331V36.1108C38.8889 35.3608 39.1644 34.7103 39.7153 34.1594C40.2662 33.6085 40.9167 33.333 41.6667 33.333H63.889C64.639 33.333 65.2894 33.6085 65.8403 34.1594C66.3913 34.7103 66.6667 35.3608 66.6667 36.1108V58.3331C66.6667 59.0831 66.3913 59.7335 65.8403 60.2844C65.2894 60.8353 64.639 61.1108 63.889 61.1108H41.6667Z" fill="#0357EE"/>
<path d="M36.111 66.6665C35.361 66.6665 34.7105 66.391 34.1596 65.8401C33.6087 65.2892 33.3333 64.6387 33.3333 63.8887V40.2775C33.3333 39.8794 33.4652 39.5484 33.7291 39.2845C33.993 39.0206 34.324 38.8887 34.7221 38.8887C35.1203 38.8887 35.4513 39.0206 35.7152 39.2845C35.9791 39.5484 36.111 39.8794 36.111 40.2775V63.8887H59.7222C60.1203 63.8887 60.4514 64.0207 60.7153 64.2845C60.9791 64.5484 61.111 64.8795 61.111 65.2776C61.111 65.6757 60.9791 66.0067 60.7153 66.2706C60.4514 66.5345 60.1203 66.6665 59.7222 66.6665H36.111Z" fill="#0357EE"/>
</g>
</svg>
