<svg width="389" height="352" viewBox="0 0 389 352" fill="none" xmlns="http://www.w3.org/2000/svg">
<g clip-path="url(#clip0_317_7)">
<path d="M370.573 37.9765L71.8417 1.08916C60.3312 -0.332163 49.8478 7.84678 48.4265 19.3573L3.69592 381.606C2.2746 393.117 10.4535 403.6 21.9641 405.021L320.695 441.909C332.206 443.33 342.689 435.151 344.111 423.641L388.841 61.3918C390.262 49.8812 382.083 39.3979 370.573 37.9765Z" fill="#0F3D77"/>
<path d="M322 48H21C9.40202 48 0 57.402 0 69V434C0 445.598 9.40202 455 21 455H322C333.598 455 343 445.598 343 434V69C343 57.402 333.598 48 322 48Z" fill="#0E4285"/>
<path d="M124 131H44V140H124V131Z" fill="#2163B7"/>
<path d="M124 164H44V173H124V164Z" fill="#2163B7"/>
<path d="M124 197H44V206H124V197Z" fill="#2163B7"/>
<path d="M124 230H44V239H124V230Z" fill="#2163B7"/>
<path d="M124 263H44V272H124V263Z" fill="#2163B7"/>
<path d="M124 296H44V305H124V296Z" fill="#2163B7"/>
<path d="M124 329H44V338H124V329Z" fill="#2163B7"/>
<path d="M296 164H165V173H296V164Z" fill="#2163B7"/>
<path d="M296 197H165V206H296V197Z" fill="#2163B7"/>
<path d="M296 230H165V239H296V230Z" fill="#2163B7"/>
<path d="M296 263H165V272H296V263Z" fill="#2163B7"/>
<path d="M296 296H165V305H296V296Z" fill="#2163B7"/>
<path d="M296 329H165V338H296V329Z" fill="#2163B7"/>
<path d="M272.233 140H272.059C260.865 139.971 253.365 137.648 251.806 136.216C250.164 134.752 248 127.182 248 116C248 104.818 250.164 97.2477 251.809 95.7839C253.365 94.3517 260.895 92.0294 272.059 92H272.233C283.426 92.0294 290.926 94.3517 292.485 95.7839C294.13 97.2455 296.294 104.845 296.294 115.998C296.294 127.151 294.13 134.75 292.485 136.212C290.926 137.673 283.426 139.995 272.233 139.995V140Z" fill="#2456E4"/>
<path d="M283.28 117.432L282.356 106.221H276.787C276.787 106.221 272.547 114.852 272.172 116.027H272.113L267.643 106.221H262.047L261.123 115.941L260.344 125.804H263.748C265.219 125.804 265.797 125.174 265.912 123.624C265.912 123.624 266.488 114.593 266.402 113.273H266.461L266.635 113.877C266.866 114.679 270.04 122.393 270.04 122.393H274.223C274.223 122.393 277.397 114.794 277.802 113.276H277.86L278.351 123.627C278.466 125.174 279.071 125.807 280.515 125.807H283.919L283.284 117.435L283.28 117.432Z" fill="white"/>
</g>
<defs>
<clipPath id="clip0_317_7">
<rect width="389" height="352" fill="white"/>
</clipPath>
</defs>
</svg>
